<svg width="30" height="30" viewBox="0 0 30 30" fill="none" xmlns="http://www.w3.org/2000/svg">
<path fill-rule="evenodd" clip-rule="evenodd" d="M4.6875 1.95898C4.43886 1.95898 4.2004 2.05776 4.02459 2.23357C3.84877 2.40939 3.75 2.64784 3.75 2.89648V23.3527C3.75 23.6014 3.84877 23.8398 4.02459 24.0156C4.2004 24.1915 4.43886 24.2902 4.6875 24.2902H21.5625C21.8111 24.2902 22.0496 24.1915 22.2254 24.0156C22.4012 23.8398 22.5 23.6014 22.5 23.3527V10.0571C22.5002 9.93123 22.4751 9.80658 22.4262 9.69061C22.3772 9.57464 22.3054 9.46972 22.215 9.38211L14.8331 2.22711C14.6585 2.05688 14.4245 1.96137 14.1806 1.96086L4.6875 1.95898ZM19.2487 9.11961L15.1181 5.11273V9.11961H19.2487ZM11.25 10.3121H7.5V8.43711H11.25V10.3121ZM18.75 14.9996H7.5V13.1246H18.75V14.9996ZM7.5 19.6871H18.75V17.8121H7.5V19.6871Z" fill="currentColor"/>
<path d="M24.375 14.0625V26.25H8.4375V28.125H25.3125C25.5611 28.125 25.7996 28.0262 25.9754 27.8504C26.1512 27.6746 26.25 27.4361 26.25 27.1875V14.0625H24.375Z" fill="currentColor"/>
</svg>
