<svg width="24" height="24" viewBox="0 0 28 28" fill="none" xmlns="http://www.w3.org/2000/svg">
<path d="M12.9715 16.3629L8.87367 12.2651C8.81715 12.2086 8.77494 12.1475 8.74706 12.0819C8.71917 12.0164 8.70486 11.9455 8.7041 11.8694C8.7041 11.7187 8.7561 11.5868 8.8601 11.4738C8.9641 11.3607 9.10051 11.3042 9.26932 11.3042H17.8607C18.0303 11.3042 18.167 11.3607 18.271 11.4738C18.375 11.5868 18.4267 11.7187 18.4259 11.8694C18.4259 11.9071 18.3694 12.039 18.2563 12.2651L14.1585 16.3629C14.0643 16.4571 13.9701 16.5231 13.8759 16.5608C13.7817 16.5984 13.6781 16.6173 13.565 16.6173C13.452 16.6173 13.3483 16.5984 13.2541 16.5608C13.1599 16.5231 13.0657 16.4571 12.9715 16.3629Z" fill="currentColor"/>
</svg>
