<svg width="24" height="24" viewBox="0 0 24 24" fill="none" xmlns="http://www.w3.org/2000/svg">
<path d="M13.7823 18.0357H22.6443M13.7823 14.369H22.6443M13.7823 21.7024H22.6443M10.1333 18.0357C10.1333 18.6548 10.0119 19.2678 9.77615 19.8398C9.54037 20.4118 9.19478 20.9315 8.75913 21.3692C8.32347 21.807 7.80626 22.1542 7.23705 22.3911C6.66783 22.6281 6.05775 22.75 5.44164 22.75C4.82552 22.75 4.21544 22.6281 3.64623 22.3911C3.07701 22.1542 2.55981 21.807 2.12415 21.3692C1.68849 20.9315 1.34291 20.4118 1.10713 19.8398C0.871353 19.2678 0.75 18.6548 0.75 18.0357C0.75 16.7854 1.2443 15.5863 2.12415 14.7022C3.004 13.8181 4.19734 13.3214 5.44164 13.3214C6.68594 13.3214 7.87927 13.8181 8.75913 14.7022C9.63898 15.5863 10.1333 16.7854 10.1333 18.0357ZM10.0629 2.63414C10.0087 1.73162 9.42432 1.03233 8.53186 0.916048C7.84271 0.824905 6.84704 0.75 5.44164 0.75C4.03623 0.75 3.04056 0.825429 2.35141 0.915524C1.45948 1.03286 0.874589 1.73162 0.820375 2.63414C0.781278 3.28 0.75 4.193 0.75 5.46429C0.75 6.73557 0.781278 7.64857 0.820375 8.29443C0.874589 9.19695 1.45948 9.89624 2.35141 10.0125C3.04056 10.1037 4.03623 10.1786 5.44164 10.1786C6.84704 10.1786 7.84271 10.1031 8.53186 10.013C9.42432 9.89571 10.0087 9.19695 10.0629 8.29443C10.102 7.64857 10.1333 6.73557 10.1333 5.46429C10.1333 4.193 10.102 3.28 10.0629 2.63414ZM17.9454 9.91667C19.4034 9.91667 20.6733 9.78833 21.5986 9.65529C22.4759 9.52957 22.9779 8.65586 22.648 7.82929C22.1922 6.68979 21.6573 5.58392 21.0471 4.51986C20.4348 3.45655 19.7488 2.43784 18.9942 1.47129C18.4469 0.770952 17.4434 0.770952 16.896 1.47129C16.1418 2.43787 15.4561 3.45658 14.8442 4.51986C14.2338 5.58391 13.6987 6.68978 13.2428 7.82929C12.9133 8.65586 13.4148 9.52957 14.2922 9.65529C15.2174 9.78833 16.4878 9.91667 17.9454 9.91667Z" stroke="currentColor" stroke-width="1.5" stroke-linecap="round" stroke-linejoin="round"/>
</svg>
